<svg width="1400" height="738" viewBox="0 0 1400 738" fill="none" xmlns="http://www.w3.org/2000/svg">
<rect x="1" y="1" width="1398" height="736" fill="#FCE76C" fill-opacity="0.2" stroke="black" stroke-width="2"/>
<rect x="1" y="75" width="1398" height="466" fill="white" stroke="black" stroke-width="2"/>
<line y1="541" x2="1400" y2="541" stroke="black" stroke-width="2"/>
<line y1="607" x2="1400" y2="607" stroke="black" stroke-width="2"/>
<line y1="675" x2="1400" y2="675" stroke="black" stroke-width="2"/>
<rect x="1" y="1" width="838" height="74" fill="white" stroke="black" stroke-width="2"/>
<path d="M1081.6 42.0346L1075.34 43.6967L1069.97 40.6675V32.947L1075.34 29.9178L1081.6 31.5798L1083 26.406L1078.24 25.1461L1079.48 20.4012L1074.3 19.0072L1072.63 25.2533L1067.26 28.2825L1060.67 24.4223V18.3639L1065.27 13.7798L1061.45 10L1057.99 13.4581L1054.52 10L1050.71 13.7798L1055.3 18.3639V24.4223L1048.58 28.2825L1043.21 25.2533L1041.65 19.0072L1036.49 20.4012L1037.76 25.1461L1033 26.406L1034.4 31.5798L1040.66 29.9178L1046.03 32.947V40.6943L1040.66 43.7235L1034.4 42.0614L1033 47.2352L1037.76 48.4952L1036.49 53.2133L1041.68 54.6072L1043.34 48.3611L1048.72 45.3319L1055.3 49.1922V55.2506L1050.71 59.8346L1054.52 63.6145L1057.99 60.1563L1061.45 63.6145L1065.24 59.8346L1060.67 55.2506V49.1922L1067.39 45.3051L1072.76 48.3343L1074.43 54.5804L1079.48 53.2133L1078.22 48.4684L1082.97 47.2084L1081.6 42.0346ZM1051.27 32.947L1057.99 29.0599L1064.7 32.947V40.6675L1057.99 44.5545L1051.27 40.6675V32.947Z" fill="#8BD0FC"/>
<path d="M936.375 55.225L939.9 58.75L944.4 54.275L940.85 50.725M957.5 22.5C949.225 22.5 942.5 29.225 942.5 37.5C942.5 45.775 949.225 52.5 957.5 52.5C965.775 52.5 972.5 45.775 972.5 37.5C972.5 29.2 965.775 22.5 957.5 22.5ZM977.5 40H985V35H977.5M970.6 54.275L975.1 58.75L978.625 55.225L974.15 50.725M978.625 20L975.1 16.5L970.6 20.975L974.15 24.525M960 10H955V17.5H960M944.4 20.975L939.9 16.5L936.375 20L940.85 24.525L944.4 20.975ZM930 40H937.5V35H930M960 57.5H955V65H960" fill="#FF8F5C"/>
<path d="M1149 60C1144.3 60 1140.29 58.3646 1136.98 55.0938C1133.66 51.8021 1132 47.7917 1132 43.0625C1132 39 1133.21 35.375 1135.62 32.1875C1138.05 29 1141.22 26.9687 1145.13 26.0937C1146.43 21.3021 1149.01 17.4271 1152.86 14.4687C1156.73 11.4896 1161.11 10 1165.99 10C1172.03 10 1177.14 12.125 1181.32 16.375C1185.52 20.6042 1187.62 25.7708 1187.62 31.875C1191.19 32.2917 1194.14 33.8542 1196.46 36.5625C1198.81 39.2292 1199.99 42.3542 1199.99 45.9375C1199.99 49.8542 1198.64 53.1771 1195.94 55.9063C1193.24 58.6354 1189.95 60 1186.08 60H1149Z" fill="#CDCDCD"/>
<path d="M1272.5 10C1278.47 10 1284.19 12.3705 1288.41 16.5901C1292.63 20.8097 1295 26.5326 1295 32.5H1275V52.5C1275 54.4891 1274.21 56.3968 1272.8 57.8033C1271.4 59.2098 1269.49 60 1267.5 60C1265.51 60 1263.6 59.2098 1262.2 57.8033C1260.79 56.3968 1260 54.4891 1260 52.5V50H1265V52.5C1265 53.163 1265.26 53.7989 1265.73 54.2678C1266.2 54.7366 1266.84 55 1267.5 55C1268.16 55 1268.8 54.7366 1269.27 54.2678C1269.74 53.7989 1270 53.163 1270 52.5V32.5H1250C1250 26.5326 1252.37 20.8097 1256.59 16.5901C1260.81 12.3705 1266.53 10 1272.5 10Z" fill="#FCE76C"/>
<path d="M223.393 16.352V48.512H227.377V16.352H223.393ZM211.153 22.016V25.232H224.881V22.016H211.153ZM199.633 55.52V58.784H228.529V55.52H199.633ZM199.633 45.728V57.008H203.617V45.728H199.633ZM194.209 19.52V39.968H198.193V19.52H194.209ZM194.209 38.72V42.032H197.473C203.857 42.032 209.665 41.744 216.625 40.496L216.241 37.184C209.473 38.384 203.665 38.72 197.473 38.72H194.209ZM211.153 30.272V33.536H224.881V30.272H211.153ZM347.235 34.304V42.032H351.219V34.304H347.235ZM367.155 16.352V41.888H371.139V16.352H367.155ZM335.955 35.648C344.067 35.648 354.435 35.552 363.939 34.16L363.699 31.568C354.435 32.624 343.827 32.672 335.475 32.672L335.955 35.648ZM342.051 43.472V46.352H367.203V49.856H342.147V57.392H346.035V52.496H371.139V43.472H342.051ZM342.147 56.384V59.264H372.579V56.384H342.147ZM358.515 36.992V39.584H368.403V36.992H358.515ZM349.491 17.168C343.011 17.168 338.787 19.664 338.787 23.696C338.787 27.728 343.011 30.224 349.491 30.224C355.923 30.224 360.147 27.728 360.147 23.696C360.147 19.664 355.923 17.168 349.491 17.168ZM349.491 19.952C353.667 19.952 356.403 21.392 356.403 23.696C356.403 26 353.667 27.44 349.491 27.44C345.219 27.44 342.483 26 342.483 23.696C342.483 21.392 345.219 19.952 349.491 19.952ZM529.075 17.936C522.643 17.936 517.891 21.872 517.891 27.584C517.891 33.248 522.643 37.184 529.075 37.184C535.555 37.184 540.307 33.248 540.307 27.584C540.307 21.872 535.555 17.936 529.075 17.936ZM529.075 21.2C533.299 21.2 536.419 23.84 536.419 27.584C536.419 31.328 533.299 33.92 529.075 33.92C524.899 33.92 521.731 31.328 521.731 27.584C521.731 23.84 524.899 21.2 529.075 21.2ZM548.467 16.352V38.576H552.499V16.352H548.467ZM524.419 40.688V43.904H548.563V48.272H524.515V57.776H528.403V51.248H552.499V40.688H524.419ZM524.515 56V59.168H553.939V56H524.515ZM695.375 38.672V51.68H699.311V38.672H695.375ZM711.407 38.672V51.68H715.391V38.672H711.407ZM685.775 50.912V54.224H725.087V50.912H685.775ZM705.359 19.088C696.143 19.088 689.567 23.456 689.567 30.272C689.567 37.04 696.143 41.408 705.359 41.408C714.527 41.408 721.103 37.04 721.103 30.272C721.103 23.456 714.527 19.088 705.359 19.088ZM705.359 22.256C712.319 22.256 717.263 25.424 717.263 30.272C717.263 35.072 712.319 38.24 705.359 38.24C698.399 38.24 693.407 35.072 693.407 30.272C693.407 25.424 698.399 22.256 705.359 22.256ZM742.075 17.936C735.643 17.936 730.891 21.872 730.891 27.584C730.891 33.248 735.643 37.184 742.075 37.184C748.555 37.184 753.307 33.248 753.307 27.584C753.307 21.872 748.555 17.936 742.075 17.936ZM742.075 21.2C746.299 21.2 749.419 23.84 749.419 27.584C749.419 31.328 746.299 33.92 742.075 33.92C737.899 33.92 734.731 31.328 734.731 27.584C734.731 23.84 737.899 21.2 742.075 21.2ZM761.467 16.352V38.576H765.499V16.352H761.467ZM737.419 40.688V43.904H761.563V48.272H737.515V57.776H741.403V51.248H765.499V40.688H737.419ZM737.515 56V59.168H766.939V56H737.515Z" fill="black"/>
</svg>
