<svg width="100" height="100" viewBox="0 0 100 100" fill="none" xmlns="http://www.w3.org/2000/svg">
<circle cx="50" cy="50" r="50" fill="#D9D9D9"/>
<path d="M50 29.1111C47.2889 29.1111 44.6888 30.1881 42.7718 32.1051C40.8548 34.0222 39.7778 36.6222 39.7778 39.3333C39.7778 42.0444 40.8548 44.6445 42.7718 46.5615C44.6888 48.4786 47.2889 49.5556 50 49.5556C52.7111 49.5556 55.3112 48.4786 57.2282 46.5615C59.1452 44.6445 60.2222 42.0444 60.2222 39.3333C60.2222 36.6222 59.1452 34.0222 57.2282 32.1051C55.3112 30.1881 52.7111 29.1111 50 29.1111ZM34.6667 39.3333C34.6667 35.2667 36.2821 31.3666 39.1577 28.491C42.0333 25.6155 45.9333 24 50 24C54.0667 24 57.9667 25.6155 60.8423 28.491C63.7179 31.3666 65.3333 35.2667 65.3333 39.3333C65.3333 43.4 63.7179 47.3001 60.8423 50.1756C57.9667 53.0512 54.0667 54.6667 50 54.6667C45.9333 54.6667 42.0333 53.0512 39.1577 50.1756C36.2821 47.3001 34.6667 43.4 34.6667 39.3333ZM39.7778 64.8889C37.7445 64.8889 35.7944 65.6966 34.3566 67.1344C32.9188 68.5722 32.1111 70.5222 32.1111 72.5556C32.1111 73.2333 31.8419 73.8834 31.3626 74.3626C30.8833 74.8419 30.2333 75.1111 29.5556 75.1111C28.8778 75.1111 28.2278 74.8419 27.7485 74.3626C27.2692 73.8834 27 73.2333 27 72.5556C27 69.1667 28.3462 65.9166 30.7425 63.5203C33.1388 61.124 36.3889 59.7778 39.7778 59.7778H60.2222C63.6111 59.7778 66.8612 61.124 69.2575 63.5203C71.6538 65.9166 73 69.1667 73 72.5556C73 73.2333 72.7308 73.8834 72.2515 74.3626C71.7722 74.8419 71.1222 75.1111 70.4444 75.1111C69.7667 75.1111 69.1167 74.8419 68.6374 74.3626C68.1581 73.8834 67.8889 73.2333 67.8889 72.5556C67.8889 70.5222 67.0812 68.5722 65.6434 67.1344C64.2056 65.6966 62.2556 64.8889 60.2222 64.8889H39.7778Z" fill="#757474"/>
</svg>
